# xmcd
#
# Track frame offsets:
#	182
#	12912
#	25672
#	40332
#	52415
#	79380
#	96840
#	129312
#	151402
#	168485
#	183690
#	200477
#	221982
#	240440
#	265517
#	283672
#	300065
#	313662
#	339815
#
# Disc length: 4770 seconds
#
# Revision: 1
# Processed by: cddbd v1.5.1PL0 Copyright (c) Steve Scherf et al.
# Submitted via: audiograbber 1.83.01
#
DISCID=0512a013
DTITLE=The First Choice - Philly Golden Classics
DYEAR=1994
DGENRE=Soul
TTITLE0=Armed and Extremely Dangerous
TTITLE1=Gonna Keep on Lovin' Him
TTITLE2=One Step Away
TTITLE3=Smarty Pants
TTITLE4=Newsy Neighbors
TTITLE5=This Little Woman
TTITLE6=The Player
TTITLE7=Guilty
TTITLE8=Wake Up to Me
TTITLE9=Love Freeze
TTITLE10=A Boy Named Junior
TTITLE11=All I Need is Time
TTITLE12=Guess What Mary Jones Did
TTITLE13=Hustler Bill
TTITLE14=Love and Happiness
TTITLE15=Runnin' Out of Fools
TTITLE16=This is the House
TTITLE17=You Took the Words Right Out of My Mouth
TTITLE18=You've Been Doin' Wrong for So Long
EXTD=Cllectables C# COL-CD-5500
EXTT0=
EXTT1=
EXTT2=
EXTT3=
EXTT4=
EXTT5=
EXTT6=
EXTT7=
EXTT8=
EXTT9=
EXTT10=
EXTT11=
EXTT12=
EXTT13=
EXTT14=
EXTT15=
EXTT16=
EXTT17=
EXTT18=
PLAYORDER=
